<?xml version="1.0" encoding="UTF-8"?>
<svg xmlns="http://www.w3.org/2000/svg" xmlns:xlink="http://www.w3.org/1999/xlink" width="1200px" height="882px" viewBox="0 0 1197 882" version="1.1">
<defs>
<clipPath id="clip1">
  <path d="M 204.488281 254.421875 L 531.667969 254.421875 L 531.667969 627.574219 L 204.488281 627.574219 Z M 204.488281 254.421875 "/>
</clipPath>
<clipPath id="clip2">
  <path d="M 336.15625 324.265625 L 437 324.265625 L 437 414 L 336.15625 414 Z M 336.15625 324.265625 "/>
</clipPath>
<clipPath id="clip3">
  <path d="M 336.15625 324.265625 L 401.992188 324.265625 L 401.992188 386 L 336.15625 386 Z M 336.15625 324.265625 "/>
</clipPath>
<clipPath id="clip4">
  <path d="M 354.113281 331 L 401.992188 331 L 401.992188 372.15625 L 354.113281 372.15625 Z M 354.113281 331 "/>
</clipPath>
</defs>
<g id="surface1">
<rect x="0" y="0" width="1197" height="882" style="fill:rgb(100%,100%,100%);fill-opacity:1;stroke:none;"/>
<g clip-path="url(#clip1)" clip-rule="nonzero">
<path style=" stroke:none;fill-rule:nonzero;fill:rgb(0%,0%,0%);fill-opacity:1;" d="M 530.835938 372.664062 C 528.839844 368.535156 526.117188 364.460938 522.808594 361.324219 C 513.679688 352.664062 503.140625 346.136719 491.035156 342.234375 C 478.0625 338.050781 469.140625 340.527344 460.96875 351.34375 C 456.839844 356.816406 453.269531 362.714844 449.09375 368.152344 C 448.046875 369.519531 445.648438 369.851562 443.867188 370.664062 C 444.015625 368.835938 443.773438 366.867188 444.386719 365.214844 C 446.511719 359.476562 449.382812 353.984375 451.164062 348.152344 C 456.175781 331.753906 452.421875 317.351562 438.652344 307.015625 C 430.097656 300.589844 420.476562 295.265625 410.6875 290.917969 C 404.242188 288.050781 399.941406 284.070312 395.6875 278.703125 C 389.472656 270.855469 382.28125 263.683594 374.882812 256.90625 C 370.238281 252.652344 366.699219 253.921875 365.171875 260.265625 C 363.28125 268.121094 362.683594 276.285156 361.042969 284.21875 C 360.585938 286.429688 358.847656 289.367188 356.953125 290.144531 C 333.824219 299.589844 318.832031 316.359375 311.484375 340.019531 C 310.234375 344.050781 308.152344 345.148438 304.21875 345.628906 C 298.171875 346.367188 292.105469 347.652344 286.3125 349.527344 C 279.566406 351.703125 278.722656 355.570312 283.738281 360.753906 C 288 365.148438 292.460938 369.570312 297.539062 372.90625 C 306.359375 378.703125 313.183594 385.441406 314.125 396.597656 C 314.246094 397.988281 315.023438 399.328125 315.496094 400.691406 C 316.082031 402.390625 316.730469 404.003906 317.445312 405.527344 C 317.570312 405.804688 317.71875 406.058594 317.847656 406.328125 C 302.644531 395.289062 277.167969 378.703125 270.9375 386.460938 C 261.898438 397.707031 288.851562 437.582031 311.351562 450.402344 C 325.089844 458.222656 328.167969 474.136719 328.488281 485.351562 C 328.238281 487.058594 327.9375 488.753906 327.585938 490.441406 C 322.304688 492.773438 317.785156 496.621094 314.808594 501.710938 C 310.105469 509.75 308.875 518.582031 310.523438 527.382812 C 312.214844 536.425781 315.421875 545.191406 318.136719 554.675781 C 317.585938 554.828125 315.867188 555.164062 314.253906 555.78125 C 307.710938 558.277344 300.96875 560.398438 294.761719 563.5625 C 290.300781 565.839844 287.261719 569.921875 288.613281 575.636719 C 289.988281 581.445312 294.773438 583.378906 299.675781 583.457031 C 308.472656 583.597656 317.34375 583.195312 326.082031 582.152344 C 334.65625 581.132812 343.046875 578.453125 351.625 577.59375 C 358.640625 576.886719 361.769531 582.84375 357.941406 588.832031 C 356.125 591.667969 353.671875 594.253906 351.042969 596.367188 C 343.023438 602.808594 333.457031 605.378906 323.441406 606.417969 C 292.757812 609.601562 259.726562 596.703125 245.3125 568.542969 C 234.648438 547.710938 232.65625 525.976562 242.710938 504.285156 C 248.261719 492.3125 259.40625 488.15625 272.183594 491.503906 C 277.5625 492.914062 283.136719 494.125 288.65625 494.3125 C 296.097656 494.5625 302.621094 491.851562 306.058594 484.601562 C 309.476562 477.40625 308.769531 470.078125 303.625 464.261719 C 299.804688 459.945312 294.925781 455.75 289.660156 453.667969 C 264.953125 443.894531 235.132812 453.578125 219.988281 476.75 C 199.824219 507.601562 199.984375 540.222656 216.695312 572.015625 C 242.765625 621.617188 307.378906 640.722656 359.085938 615.011719 C 369.871094 609.652344 379.824219 602.628906 390.1875 596.40625 C 398.652344 591.324219 405.328125 592.015625 412.132812 599.105469 C 415.621094 602.742188 418.359375 607.09375 421.800781 610.785156 C 426.703125 616.046875 431.457031 621.636719 437.160156 625.910156 C 444.167969 631.171875 452.113281 627.394531 452.878906 618.640625 C 453.242188 614.535156 451.957031 610.125 450.695312 606.078125 C 449.613281 602.609375 447.503906 599.453125 446.03125 596.519531 C 454.167969 592.082031 462.023438 588.410156 469.226562 583.738281 C 486.355469 572.625 486.78125 548.558594 467.820312 539.117188 C 466.730469 538.578125 465.753906 537.820312 464.835938 537.234375 C 464.914062 536.5625 464.839844 536.128906 465.019531 535.882812 C 466.089844 534.4375 467.1875 533.011719 468.3125 531.605469 C 483.800781 512.152344 492.3125 490.199219 492.269531 465.128906 C 492.230469 446.492188 487.082031 429.144531 479.441406 412.359375 C 475.917969 404.625 474.449219 396.496094 476.019531 388.035156 C 477.058594 382.433594 479.707031 377.679688 485.226562 375.519531 C 490.675781 373.382812 493.785156 377.640625 497.367188 380.65625 C 501.742188 384.347656 506.078125 388.234375 510.976562 391.125 C 516.640625 394.460938 523.558594 393.339844 527.664062 389.519531 C 532.382812 385.136719 533.90625 379.023438 530.835938 372.664062 "/>
</g>
<g clip-path="url(#clip2)" clip-rule="nonzero">
<path style=" stroke:none;fill-rule:nonzero;fill:rgb(39.607843%,16.862745%,20.784314%);fill-opacity:1;" d="M 411.808594 353.523438 C 408.980469 350.316406 408.378906 345.550781 409.542969 341.441406 C 410.707031 337.328125 413.429688 333.808594 416.570312 330.90625 C 418.472656 329.152344 420.5625 327.578125 422.863281 326.402344 C 425.171875 325.21875 427.671875 324.453125 430.246094 324.132812 C 431.042969 324.03125 431.871094 323.976562 432.644531 324.195312 C 434.246094 324.65625 435.304688 326.203125 435.886719 327.765625 C 436.609375 329.691406 436.820312 331.804688 436.492188 333.832031 C 436.160156 335.929688 435.269531 337.898438 434.230469 339.75 C 429.914062 347.441406 422.109375 353.742188 413.292969 353.875 M 344.8125 413.457031 C 341.214844 413.757812 336.949219 412.640625 335.625 409.277344 C 334.707031 406.953125 335.558594 404.230469 337.132812 402.28125 C 338.703125 400.339844 340.894531 399.011719 343.042969 397.730469 L 348.769531 394.304688 C 352.953125 391.804688 357.523438 389.210938 362.371094 389.714844 C 362.699219 389.75 363.042969 389.804688 363.3125 390 C 363.769531 390.335938 363.875 390.96875 363.9375 391.53125 C 364.308594 394.785156 364.628906 398.148438 363.636719 401.269531 C 362.417969 405.117188 359.289062 408.148438 355.703125 410.003906 C 352.117188 411.863281 348.085938 412.671875 344.085938 413.226562 "/>
</g>
<g clip-path="url(#clip3)" clip-rule="nonzero">
<path style=" stroke:none;fill-rule:nonzero;fill:rgb(100%,100%,100%);fill-opacity:1;" d="M 364.113281 366.390625 C 366.40625 374.042969 362.0625 382.113281 354.410156 384.40625 C 346.753906 386.703125 338.691406 382.359375 336.394531 374.703125 C 334.101562 367.046875 338.445312 358.980469 346.097656 356.683594 C 353.75 354.386719 361.816406 358.734375 364.113281 366.390625 M 401.886719 332.632812 C 403.875 339.269531 400.109375 346.265625 393.472656 348.257812 C 386.832031 350.25 379.839844 346.480469 377.847656 339.839844 C 375.859375 333.203125 379.625 326.207031 386.261719 324.214844 C 392.898438 322.226562 399.894531 325.992188 401.886719 332.632812 M 386.636719 358.679688 L 385.347656 366.292969 C 385.671875 366.542969 385.90625 366.890625 386.011719 367.285156 C 386.0625 367.484375 386.828125 367.765625 387.957031 367.691406 C 390.765625 367.488281 393.460938 366.492188 395.726562 364.816406 C 396.550781 364.207031 397.710938 364.382812 398.320312 365.203125 C 398.929688 366.027344 398.753906 367.1875 397.933594 367.796875 C 395.097656 369.890625 391.726562 371.136719 388.214844 371.386719 C 387.492188 371.441406 386.765625 371.40625 386.054688 371.277344 C 385.960938 372.8125 385.476562 374.300781 384.644531 375.59375 C 383.421875 377.519531 381.566406 379.035156 379.203125 380.246094 C 378.292969 380.714844 377.175781 380.355469 376.710938 379.445312 C 376.242188 378.535156 376.601562 377.417969 377.511719 376.953125 C 379.335938 376.011719 380.691406 374.90625 381.519531 373.605469 C 382.316406 372.351562 382.570312 370.859375 382.199219 369.671875 L 382.082031 369.355469 C 381.996094 369.152344 381.945312 368.9375 381.933594 368.71875 L 374.78125 368.777344 C 372.09375 368.800781 370.847656 365.457031 372.894531 363.710938 L 381.933594 356.007812 C 383.980469 354.265625 387.082031 356.027344 386.636719 358.679688 Z M 386.636719 358.679688 "/>
</g>
<g clip-path="url(#clip4)" clip-rule="nonzero">
<path style=" stroke:none;fill-rule:nonzero;fill:rgb(0%,0%,0%);fill-opacity:1;" d="M 362.15625 367.757812 C 362.625 369.242188 362.261719 370.863281 361.199219 372 C 360.140625 373.136719 358.546875 373.613281 357.035156 373.246094 C 355.523438 372.878906 354.328125 371.726562 353.90625 370.226562 C 353.269531 367.964844 354.566406 365.613281 356.816406 364.9375 C 359.066406 364.261719 361.441406 365.519531 362.15625 367.757812 M 401.015625 333.800781 C 401.605469 335.773438 400.488281 337.855469 398.511719 338.445312 C 396.539062 339.039062 394.460938 337.917969 393.867188 335.945312 C 393.273438 333.96875 394.394531 331.890625 396.367188 331.296875 C 398.34375 330.703125 400.421875 331.824219 401.015625 333.800781 "/>
</g>
<path style=" stroke:none;fill-rule:nonzero;fill:rgb(0%,0%,0%);fill-opacity:1;" d="M 576.953125 293.335938 C 580.144531 292.402344 583.273438 291.539062 586.332031 290.742188 C 589.390625 289.941406 592.449219 289.210938 595.507812 288.546875 C 600.5625 287.214844 605.816406 285.953125 611.269531 284.753906 C 616.722656 283.558594 621.375 282.625 625.234375 281.960938 C 626.828125 281.695312 628.425781 281.496094 630.019531 281.363281 C 631.617188 281.097656 633.148438 280.894531 634.609375 280.761719 C 636.074219 280.628906 637.269531 280.496094 638.199219 280.363281 C 639.265625 280.230469 639.996094 280.164062 640.394531 280.164062 L 650.96875 280.164062 C 652.164062 280.5625 652.765625 281.296875 652.765625 282.359375 C 652.632812 282.890625 652.566406 283.359375 652.566406 283.757812 C 652.566406 284.15625 652.566406 284.488281 652.566406 284.753906 C 652.566406 285.953125 652.496094 287.214844 652.363281 288.546875 C 652.230469 289.742188 651.765625 290.808594 650.96875 291.738281 C 650.570312 292.402344 649.839844 293.203125 648.773438 294.132812 C 647.710938 295.199219 646.976562 295.730469 646.578125 295.730469 L 600.695312 302.113281 C 599.230469 302.382812 597.835938 303.179688 596.503906 304.507812 C 595.308594 305.839844 594.710938 307.171875 594.710938 308.5 L 596.105469 340.429688 C 596.105469 341.492188 596.171875 342.222656 596.304688 342.625 C 596.4375 343.15625 597.238281 343.554688 598.699219 343.820312 C 599.496094 343.820312 600.5625 343.820312 601.890625 343.820312 C 603.222656 343.820312 604.550781 343.820312 605.882812 343.820312 C 607.210938 343.820312 608.410156 343.820312 609.472656 343.820312 C 610.667969 343.820312 611.46875 343.820312 611.867188 343.820312 C 613.195312 343.820312 614.0625 342.957031 614.460938 341.226562 C 614.992188 339.628906 615.324219 337.699219 615.457031 335.4375 C 615.457031 333.3125 615.457031 331.183594 615.457031 329.054688 C 615.457031 326.925781 615.589844 325.460938 615.855469 324.664062 C 615.988281 323.734375 616.121094 322.800781 616.253906 321.871094 C 616.253906 320.9375 616.386719 320.007812 616.65625 319.078125 C 616.789062 317.480469 617.453125 315.882812 618.648438 314.289062 L 623.4375 313.488281 C 624.5 313.222656 625.433594 313.089844 626.230469 313.089844 C 627.027344 313.089844 627.558594 313.089844 627.828125 313.089844 C 630.886719 313.089844 633.011719 313.6875 634.210938 314.886719 C 635.539062 316.082031 636.339844 317.546875 636.605469 319.277344 C 636.871094 321.136719 636.871094 323 636.605469 324.863281 C 636.605469 325.527344 636.539062 326.792969 636.40625 328.65625 C 636.40625 330.515625 636.40625 332.511719 636.40625 334.640625 C 636.40625 336.636719 636.40625 338.566406 636.40625 340.429688 C 636.273438 342.15625 636.207031 343.289062 636.207031 343.820312 L 661.542969 343.820312 C 661.542969 343.820312 661.742188 343.820312 662.140625 343.820312 C 662.40625 343.820312 662.804688 343.886719 663.335938 344.019531 C 663.871094 344.019531 664.335938 344.085938 664.734375 344.21875 C 665.132812 344.351562 665.398438 344.484375 665.53125 344.617188 C 665.664062 345.152344 665.796875 345.882812 665.929688 346.8125 C 665.929688 347.746094 665.996094 348.609375 666.128906 349.40625 L 666.128906 352 C 666.128906 352.667969 665.796875 353.265625 665.132812 353.796875 C 664.46875 354.195312 663.671875 354.597656 662.738281 354.996094 C 661.808594 355.261719 660.808594 355.527344 659.746094 355.792969 C 658.816406 356.058594 657.949219 356.257812 657.152344 356.390625 C 656.355469 356.523438 655.558594 356.65625 654.757812 356.789062 C 654.09375 356.789062 653.429688 356.859375 652.765625 356.992188 C 651.832031 357.125 651.101562 357.191406 650.570312 357.191406 C 650.039062 357.191406 649.570312 357.257812 649.171875 357.390625 C 648.375 357.390625 647.378906 357.390625 646.179688 357.390625 C 645.117188 357.390625 644.050781 357.523438 642.988281 357.789062 L 639.996094 358.1875 C 639.464844 358.320312 639.132812 358.386719 639 358.386719 C 638.734375 358.386719 638.53125 358.386719 638.398438 358.386719 C 638 358.386719 637.667969 358.585938 637.402344 358.984375 L 637.003906 359.785156 L 637.003906 394.304688 L 632.414062 398.296875 L 612.664062 398.296875 C 610.269531 398.296875 608.410156 397.03125 607.078125 394.503906 C 605.617188 392.375 604.882812 390.449219 604.882812 388.71875 C 604.882812 387.789062 604.949219 386.921875 605.082031 386.125 C 605.082031 385.328125 605.550781 384.261719 606.480469 382.933594 C 606.878906 382.933594 607.210938 382.933594 607.476562 382.933594 C 607.875 382.933594 608.542969 382.796875 609.472656 382.53125 L 612.265625 382.132812 L 613.863281 381.734375 C 615.457031 381.46875 616.386719 380.402344 616.65625 378.542969 C 616.921875 376.8125 617.054688 375.28125 617.054688 373.953125 L 617.054688 371.359375 C 617.054688 370.558594 616.988281 369.496094 616.855469 368.164062 C 616.722656 366.835938 616.523438 365.570312 616.253906 364.375 C 616.121094 363.574219 615.988281 362.84375 615.855469 362.179688 C 615.722656 361.378906 615.589844 360.582031 615.457031 359.785156 L 577.953125 359.785156 C 577.820312 359.519531 577.683594 359.253906 577.550781 358.984375 C 577.285156 358.851562 577.152344 358.652344 577.152344 358.386719 C 576.621094 357.324219 576.355469 356.523438 576.355469 355.992188 L 576.355469 319.476562 C 575.957031 316.683594 575.691406 314.085938 575.558594 311.691406 C 575.558594 309.164062 575.558594 306.304688 575.558594 303.113281 C 575.558594 302.847656 575.492188 302.449219 575.359375 301.914062 C 575.359375 301.25 575.425781 300.585938 575.558594 299.917969 C 575.691406 299.519531 575.824219 298.988281 575.957031 298.324219 C 575.957031 297.660156 576.023438 296.992188 576.15625 296.328125 C 576.289062 295.53125 576.355469 294.863281 576.355469 294.332031 C 576.488281 293.800781 576.6875 293.46875 576.953125 293.335938 Z M 646.378906 374.75 C 646.511719 373.953125 646.84375 372.953125 647.378906 371.757812 C 647.910156 370.691406 648.640625 369.628906 649.570312 368.5625 C 650.371094 367.5 651.300781 366.570312 652.363281 365.769531 C 653.296875 365.105469 654.359375 364.90625 655.558594 365.171875 L 656.953125 365.371094 L 660.144531 367.566406 C 661.609375 368.628906 663.136719 369.761719 664.734375 370.957031 C 666.328125 372.023438 667.859375 373.152344 669.324219 374.351562 L 671.117188 375.949219 C 671.648438 376.347656 672.117188 376.746094 672.515625 377.144531 C 672.914062 377.542969 673.246094 377.875 673.511719 378.140625 L 675.308594 380.136719 C 675.972656 381.203125 676.636719 381.933594 677.300781 382.332031 L 678.699219 384.128906 L 679.296875 385.125 C 678.765625 387.386719 678.234375 389.050781 677.703125 390.117188 C 677.167969 391.179688 676.570312 391.84375 675.90625 392.109375 C 675.242188 392.511719 674.507812 392.644531 673.710938 392.511719 C 670.917969 392.109375 668.390625 391.445312 666.128906 390.515625 C 664.003906 389.714844 662.007812 388.71875 660.144531 387.519531 C 658.015625 386.324219 656.15625 384.925781 654.558594 383.332031 L 648.972656 378.542969 C 648.574219 378.140625 648.042969 377.609375 647.378906 376.945312 C 646.578125 376.28125 646.179688 375.816406 646.179688 375.546875 Z M 573.363281 381.136719 C 573.363281 379.671875 573.496094 378.277344 573.761719 376.945312 C 573.894531 375.613281 574.757812 374.617188 576.355469 373.953125 L 577.953125 373.152344 L 580.945312 371.957031 C 583.472656 371.292969 584.933594 370.691406 585.332031 370.160156 C 585.730469 370.160156 586.53125 369.695312 587.726562 368.765625 C 588.925781 367.964844 589.722656 367.566406 590.121094 367.566406 L 592.316406 367.566406 C 594.976562 367.566406 597.035156 368.5625 598.5 370.558594 C 599.964844 372.554688 600.695312 374.550781 600.695312 376.546875 C 600.695312 376.945312 600.5625 377.609375 600.296875 378.542969 C 600.03125 379.339844 599.695312 379.9375 599.296875 380.335938 C 596.902344 383.664062 594.445312 385.992188 591.917969 387.320312 C 589.390625 388.652344 585.996094 389.316406 581.742188 389.316406 L 576.355469 389.316406 C 574.757812 388.785156 573.894531 387.585938 573.761719 385.726562 C 573.496094 383.863281 573.363281 382.332031 573.363281 381.136719 Z M 795.007812 366.371094 C 795.007812 364.640625 795.207031 363.308594 795.605469 362.378906 C 796.136719 361.3125 797.335938 360.78125 799.195312 360.78125 C 800.394531 360.78125 801.722656 361.113281 803.1875 361.78125 C 804.648438 362.578125 806.113281 363.507812 807.574219 364.574219 C 809.039062 365.636719 810.234375 366.835938 811.167969 368.164062 C 812.097656 369.496094 812.5625 370.691406 812.5625 371.757812 C 812.5625 374.816406 811.566406 376.546875 809.570312 376.945312 C 810.503906 377.078125 811.234375 377.144531 811.765625 377.144531 C 812.296875 377.011719 812.828125 376.945312 813.363281 376.945312 C 813.496094 376.945312 813.761719 376.945312 814.160156 376.945312 C 814.558594 376.945312 815.023438 377.011719 815.554688 377.144531 C 816.621094 377.277344 817.75 377.476562 818.949219 377.742188 C 820.144531 377.875 821.273438 378.007812 822.339844 378.140625 C 822.871094 378.140625 823.335938 378.140625 823.734375 378.140625 C 824.132812 378.140625 824.402344 378.140625 824.535156 378.140625 C 824.933594 378.542969 825.265625 379.207031 825.53125 380.136719 C 825.796875 380.9375 825.929688 381.535156 825.929688 381.933594 C 825.265625 384.992188 823.734375 387.121094 821.339844 388.320312 C 820.144531 388.984375 818.816406 389.449219 817.351562 389.714844 C 816.023438 389.980469 814.691406 390.316406 813.363281 390.714844 C 811.765625 390.714844 809.503906 390.714844 806.578125 390.714844 C 803.652344 390.847656 800.328125 390.914062 796.601562 390.914062 L 784.632812 391.3125 L 772.863281 391.710938 C 769.007812 391.710938 765.613281 391.777344 762.6875 391.910156 C 759.761719 391.910156 757.5 391.910156 755.90625 391.910156 L 755.308594 391.910156 L 750.519531 391.3125 C 749.320312 391.046875 748.125 390.914062 746.929688 390.914062 C 745.863281 390.78125 745.132812 390.714844 744.734375 390.714844 C 743.667969 390.316406 742.9375 389.449219 742.539062 388.121094 C 742.140625 386.789062 741.808594 385.328125 741.542969 383.730469 C 741.410156 382.132812 741.277344 380.671875 741.140625 379.339844 C 740.875 378.007812 740.476562 377.210938 739.945312 376.945312 L 740.941406 374.949219 L 766.679688 374.949219 L 767.078125 372.753906 C 767.078125 372.089844 767.210938 371.359375 767.476562 370.558594 C 767.742188 369.628906 768.007812 368.699219 768.273438 367.765625 C 768.40625 366.835938 768.40625 366.035156 768.273438 365.371094 C 768.007812 364.707031 767.609375 364.242188 767.078125 363.976562 L 760.09375 363.175781 C 758.367188 363.175781 756.570312 363.042969 754.707031 362.777344 C 752.980469 362.511719 751.78125 361.847656 751.117188 360.78125 C 749.789062 359.183594 748.988281 357.523438 748.722656 355.792969 C 748.589844 353.929688 748.523438 352.066406 748.523438 350.207031 L 748.523438 347.011719 C 749.054688 347.011719 749.65625 346.8125 750.320312 346.414062 C 751.117188 346.015625 751.78125 345.816406 752.316406 345.816406 C 752.980469 345.816406 754.109375 345.75 755.707031 345.617188 C 757.433594 345.484375 759.230469 345.351562 761.09375 345.21875 L 766.28125 344.617188 C 767.210938 344.617188 767.941406 344.617188 768.472656 344.617188 C 769.007812 344.617188 769.40625 344.617188 769.671875 344.617188 C 769.671875 344.085938 769.871094 343.621094 770.269531 343.222656 C 770.535156 343.089844 770.734375 343.023438 770.867188 343.023438 C 771 343.023438 771.066406 342.890625 771.066406 342.625 L 771.066406 341.425781 C 770.800781 340.628906 770.800781 339.363281 771.066406 337.632812 C 771.199219 335.90625 771.265625 334.640625 771.265625 333.84375 L 748.523438 335.039062 C 747.59375 335.039062 746.796875 334.707031 746.128906 334.042969 C 745.597656 333.246094 745.132812 332.3125 744.734375 331.25 C 744.203125 330.316406 743.867188 329.320312 743.734375 328.253906 C 743.601562 327.324219 743.535156 326.527344 743.535156 325.859375 C 743.535156 324.265625 743.667969 322.667969 743.933594 321.070312 C 744.335938 319.609375 745.398438 318.675781 747.128906 318.277344 L 783.4375 318.277344 C 783.96875 318.277344 784.632812 318.277344 785.429688 318.277344 C 786.363281 318.277344 787.425781 318.34375 788.625 318.476562 C 791.152344 318.742188 793.808594 318.945312 796.601562 319.078125 C 799.261719 319.210938 801.921875 319.34375 804.582031 319.476562 C 805.648438 319.609375 806.644531 319.675781 807.574219 319.675781 C 808.375 319.675781 809.039062 319.675781 809.570312 319.675781 C 810.902344 320.472656 811.632812 321.472656 811.765625 322.667969 C 812.03125 324 812.164062 325.261719 812.164062 326.460938 C 812.164062 329.519531 811.367188 331.648438 809.769531 332.84375 C 808.175781 334.042969 806.246094 334.773438 803.984375 335.039062 C 802.789062 335.171875 801.589844 335.304688 800.394531 335.4375 C 799.195312 335.4375 797.933594 335.371094 796.601562 335.238281 C 793.945312 335.105469 791.617188 335.304688 789.621094 335.839844 C 789.222656 335.839844 788.757812 335.972656 788.222656 336.238281 C 787.691406 336.503906 787.292969 336.769531 787.027344 337.035156 L 787.027344 343.222656 L 788.425781 344.617188 L 803.386719 344.617188 C 803.652344 344.617188 804.316406 344.75 805.382812 345.019531 C 806.3125 345.285156 806.84375 345.550781 806.976562 345.816406 L 806.976562 349.40625 C 806.976562 352.335938 806.445312 354.464844 805.382812 355.792969 C 804.316406 356.992188 802.855469 357.855469 800.992188 358.386719 C 799.128906 358.917969 797.203125 359.253906 795.207031 359.386719 C 793.210938 359.652344 791.351562 360.050781 789.621094 360.582031 C 787.890625 361.113281 786.429688 362.046875 785.230469 363.375 C 784.832031 363.640625 784.566406 364.308594 784.433594 365.371094 C 784.167969 366.300781 783.96875 367.300781 783.835938 368.363281 C 783.703125 369.5625 783.570312 370.691406 783.4375 371.757812 C 783.4375 372.820312 783.4375 373.6875 783.4375 374.351562 C 783.4375 375.28125 783.835938 375.746094 784.632812 375.746094 C 785.164062 375.746094 785.964844 375.746094 787.027344 375.746094 C 787.957031 375.746094 789.089844 375.746094 790.417969 375.746094 L 802.191406 376.546875 C 801.789062 376.414062 801.457031 376.28125 801.191406 376.148438 C 800.792969 376.015625 800.460938 375.882812 800.195312 375.746094 L 798.199219 374.949219 C 797.535156 374.550781 797.203125 374.285156 797.203125 374.152344 C 796.003906 372.953125 795.339844 371.691406 795.207031 370.359375 C 795.074219 369.164062 795.007812 367.832031 795.007812 366.371094 Z M 764.683594 275.175781 C 764.683594 275.042969 764.75 274.910156 764.882812 274.777344 C 764.882812 274.777344 764.882812 274.710938 764.882812 274.578125 C 765.148438 273.511719 765.613281 272.515625 766.28125 271.585938 C 766.945312 270.785156 767.742188 270.253906 768.671875 269.988281 C 769.207031 269.855469 769.738281 269.523438 770.269531 268.988281 C 770.933594 268.457031 771.53125 268.191406 772.066406 268.191406 L 774.460938 268.191406 L 783.4375 272.183594 C 783.835938 272.582031 784.101562 273.179688 784.234375 273.980469 C 784.5 274.777344 784.632812 275.640625 784.632812 276.574219 L 786.03125 282.757812 C 786.03125 283.957031 786.230469 285.019531 786.628906 285.953125 L 787.226562 287.746094 C 787.890625 287.746094 788.492188 287.8125 789.023438 287.945312 C 789.554688 287.945312 790.152344 288.011719 790.816406 288.148438 C 791.484375 288.148438 792.347656 288.214844 793.410156 288.347656 C 794.476562 288.480469 795.738281 288.546875 797.203125 288.546875 L 806.777344 288.945312 L 816.355469 289.542969 C 819.414062 289.542969 822.074219 289.675781 824.335938 289.941406 C 826.726562 290.074219 828.523438 290.207031 829.71875 290.339844 C 832.511719 291.140625 834.441406 292.9375 835.507812 295.730469 C 836.703125 298.523438 837.300781 301.25 837.300781 303.910156 C 837.300781 307.371094 837.167969 310.960938 836.902344 314.6875 C 836.769531 318.542969 835.574219 322.003906 833.3125 325.0625 C 833.046875 325.460938 832.714844 325.859375 832.3125 326.261719 C 832.046875 326.660156 831.714844 327.058594 831.316406 327.457031 L 829.71875 328.855469 L 822.140625 325.0625 L 822.140625 323.867188 C 822.140625 323.332031 822.40625 322.535156 822.9375 321.472656 C 823.335938 320.273438 823.535156 319.410156 823.535156 318.875 L 823.535156 314.289062 C 823.535156 312.691406 823.335938 311.09375 822.9375 309.5 C 822.539062 307.902344 821.941406 306.503906 821.140625 305.308594 C 820.34375 304.109375 819.082031 303.246094 817.351562 302.714844 L 815.355469 302.113281 C 815.089844 301.980469 814.160156 301.914062 812.5625 301.914062 C 810.96875 301.78125 808.972656 301.648438 806.578125 301.515625 C 804.183594 301.515625 801.457031 301.449219 798.398438 301.316406 C 795.339844 301.183594 792.347656 301.050781 789.421875 300.917969 C 785.699219 300.785156 781.773438 300.71875 777.652344 300.71875 C 773.660156 300.585938 769.40625 300.386719 764.882812 300.121094 C 763.953125 300.121094 762.222656 300.253906 759.695312 300.519531 C 757.167969 300.652344 754.574219 300.851562 751.914062 301.117188 L 743.933594 302.113281 L 738.75 302.714844 C 737.816406 306.171875 737.019531 309.699219 736.355469 313.289062 C 735.691406 317.015625 735.222656 320.539062 734.957031 323.867188 C 734.292969 324.796875 733.296875 325.460938 731.964844 325.859375 C 730.769531 326.128906 729.703125 326.261719 728.773438 326.261719 C 727.042969 326.261719 725.582031 324.929688 724.382812 322.269531 C 723.320312 319.476562 722.457031 316.28125 721.789062 312.691406 C 721.125 308.964844 720.660156 305.441406 720.394531 302.113281 C 720.128906 298.789062 719.996094 296.460938 719.996094 295.128906 C 719.996094 291.40625 720.660156 288.8125 721.992188 287.347656 C 723.1875 285.886719 725.648438 285.152344 729.371094 285.152344 L 733.5625 285.152344 C 733.828125 285.152344 734.160156 285.152344 734.558594 285.152344 C 734.957031 285.152344 735.421875 285.21875 735.957031 285.351562 C 738.347656 285.886719 740.675781 286.21875 742.9375 286.351562 C 743.46875 286.351562 743.867188 286.351562 744.136719 286.351562 C 744.535156 286.351562 744.800781 286.351562 744.933594 286.351562 C 745.863281 286.351562 747.527344 286.351562 749.921875 286.351562 C 752.316406 286.351562 754.839844 286.285156 757.5 286.152344 C 760.160156 286.019531 762.15625 285.953125 763.488281 285.953125 C 764.816406 285.820312 766.011719 285.753906 767.078125 285.753906 C 767.078125 284.6875 766.746094 283.691406 766.078125 282.757812 C 765.679688 281.960938 765.214844 281.03125 764.683594 279.964844 C 764.152344 279.433594 763.953125 278.769531 764.085938 277.96875 C 764.351562 277.171875 764.550781 276.375 764.683594 275.574219 L 764.683594 274.777344 Z M 764.882812 273.980469 L 764.882812 274.578125 L 764.683594 274.777344 Z M 894.558594 303.910156 C 894.160156 303.910156 893.761719 303.578125 893.359375 302.914062 C 892.960938 302.246094 892.5625 301.515625 892.164062 300.71875 L 890.765625 297.125 C 890.765625 295.265625 891.101562 293.601562 891.765625 292.136719 C 892.5625 290.675781 893.828125 289.609375 895.554688 288.945312 L 918.097656 288.945312 C 921.824219 288.945312 926.277344 288.878906 931.464844 288.746094 C 936.519531 288.480469 941.707031 288.28125 947.027344 288.148438 C 952.347656 288.011719 957.535156 288.011719 962.585938 288.148438 C 967.507812 288.414062 971.765625 288.945312 975.355469 289.742188 C 978.8125 290.675781 981.273438 292.003906 982.738281 293.734375 C 984.199219 295.464844 984.132812 297.792969 982.539062 300.71875 C 979.878906 302.046875 977.285156 302.78125 974.757812 302.914062 C 972.097656 303.046875 969.371094 303.246094 966.578125 303.511719 C 963.917969 303.777344 961.125 303.910156 958.199219 303.910156 L 949.421875 303.910156 C 949.15625 303.910156 948.289062 304.308594 946.828125 305.109375 C 945.496094 305.773438 944.632812 306.238281 944.234375 306.503906 C 943.96875 306.902344 943.636719 307.503906 943.234375 308.300781 C 942.835938 309.230469 942.371094 310.230469 941.839844 311.292969 L 940.242188 314.289062 L 939.445312 316.480469 L 939.445312 319.675781 C 939.445312 322.070312 939.644531 323.667969 940.042969 324.464844 C 940.441406 325.394531 940.976562 326.128906 941.640625 326.660156 C 942.304688 327.191406 942.96875 327.722656 943.636719 328.253906 C 944.300781 328.789062 944.964844 329.851562 945.628906 331.449219 C 945.761719 332.777344 945.894531 334.707031 946.027344 337.234375 C 946.160156 339.894531 946.296875 342.890625 946.429688 346.214844 L 946.828125 356.992188 L 947.425781 367.566406 C 947.425781 370.890625 947.558594 373.886719 947.824219 376.546875 C 947.957031 379.207031 948.089844 381.203125 948.222656 382.53125 L 948.222656 384.527344 C 948.222656 387.855469 947.625 389.980469 946.429688 390.914062 C 945.230469 391.976562 943.101562 392.511719 940.042969 392.511719 C 936.320312 392.511719 933.859375 391.777344 932.664062 390.316406 C 931.597656 388.851562 930.933594 386.257812 930.667969 382.53125 L 930.667969 361.378906 C 930.667969 360.582031 930.601562 359.253906 930.46875 357.390625 C 930.46875 355.660156 930.335938 353.796875 930.070312 351.800781 C 929.9375 349.808594 929.804688 347.945312 929.671875 346.214844 C 929.535156 344.484375 929.46875 343.289062 929.46875 342.625 C 929.46875 342.222656 929.402344 341.558594 929.269531 340.628906 C 929.136719 339.5625 928.871094 338.5 928.472656 337.433594 C 928.207031 336.371094 927.808594 335.4375 927.277344 334.640625 C 926.878906 333.710938 926.34375 333.042969 925.679688 332.644531 C 925.28125 332.910156 924.75 333.3125 924.085938 333.84375 C 923.550781 334.375 922.953125 334.972656 922.289062 335.640625 C 921.625 336.304688 921.023438 336.902344 920.492188 337.433594 C 919.828125 338.101562 919.496094 338.632812 919.496094 339.03125 L 918.097656 341.425781 C 916.371094 343.421875 914.242188 345.550781 911.714844 347.8125 C 909.054688 350.207031 906.195312 352.335938 903.136719 354.195312 C 900.078125 356.324219 896.953125 358.054688 893.761719 359.386719 C 890.699219 360.714844 887.839844 361.378906 885.179688 361.378906 C 883.71875 361.378906 882.386719 360.980469 881.191406 360.183594 C 879.863281 359.386719 878.730469 358.453125 877.800781 357.390625 C 876.867188 356.191406 876.203125 355.394531 875.804688 354.996094 C 875.539062 354.464844 875.40625 353.597656 875.40625 352.402344 C 875.40625 350.40625 875.738281 348.875 876.402344 347.8125 C 877.070312 346.746094 877.933594 345.75 878.996094 344.816406 C 879.261719 344.683594 880.261719 344.21875 881.988281 343.421875 C 883.585938 342.625 885.449219 341.691406 887.574219 340.628906 L 895.355469 337.035156 C 895.355469 336.902344 895.421875 336.835938 895.554688 336.835938 C 895.820312 336.835938 896.085938 336.769531 896.351562 336.636719 C 896.886719 336.503906 897.417969 336.238281 897.949219 335.839844 C 899.679688 334.773438 902.007812 332.910156 904.933594 330.25 C 907.859375 327.722656 910.917969 325.0625 914.109375 322.269531 C 917.167969 319.476562 919.894531 316.550781 922.289062 313.488281 C 924.550781 310.429688 925.679688 307.703125 925.679688 305.308594 C 925.679688 304.375 925.214844 303.910156 924.285156 303.910156 Z M 957.601562 337.832031 C 958.53125 336.636719 959.726562 335.304688 961.191406 333.84375 C 962.652344 332.378906 964.316406 331.648438 966.179688 331.648438 C 967.109375 331.648438 967.972656 331.714844 968.773438 331.847656 C 969.4375 331.847656 970.300781 332.179688 971.367188 332.84375 C 972.03125 333.378906 973.226562 334.109375 974.957031 335.039062 C 976.550781 335.972656 978.28125 336.835938 980.144531 337.632812 L 984.929688 340.226562 L 987.324219 341.625 L 990.515625 344.617188 C 991.847656 345.949219 992.511719 347.277344 992.511719 348.609375 C 992.511719 349.273438 992.378906 350.207031 992.113281 351.402344 C 991.980469 352.601562 991.648438 353.796875 991.117188 354.996094 C 990.585938 356.058594 989.851562 356.992188 988.921875 357.789062 C 988.125 358.585938 987.191406 358.984375 986.128906 358.984375 C 983.734375 358.984375 981.472656 358.585938 979.34375 357.789062 C 977.21875 356.859375 975.15625 355.660156 973.160156 354.195312 C 972.230469 353.664062 971.300781 353 970.367188 352.203125 C 969.4375 351.402344 968.507812 350.605469 967.574219 349.808594 L 962.585938 345.417969 C 961.523438 344.75 960.460938 343.753906 959.394531 342.421875 C 958.199219 341.09375 957.601562 339.761719 957.601562 338.433594 Z M 957.601562 337.832031 "/>
<path style=" stroke:none;fill-rule:nonzero;fill:rgb(0%,0%,0%);fill-opacity:1;" d="M 578.351562 438.605469 C 578.351562 437.40625 578.75 435.8125 579.546875 433.816406 C 579.679688 432.886719 579.945312 432.21875 580.34375 431.820312 C 580.476562 431.289062 580.679688 431.023438 580.945312 431.023438 L 592.117188 429.824219 C 593.710938 429.957031 596.503906 430.15625 600.496094 430.425781 C 604.484375 430.691406 608.742188 430.890625 613.261719 431.023438 L 634.609375 432.417969 L 635.804688 432.417969 L 641.191406 433.21875 L 654.558594 435.214844 L 658.152344 436.011719 L 659.347656 436.410156 C 659.878906 436.542969 660.542969 436.742188 661.34375 437.007812 C 662.007812 437.273438 662.671875 437.609375 663.335938 438.007812 L 664.335938 438.605469 C 664.734375 438.871094 665.265625 439.667969 665.929688 441 C 666.597656 442.332031 666.929688 443.195312 666.929688 443.59375 L 666.929688 468.339844 L 666.53125 470.734375 C 666.398438 472.195312 666.195312 473.726562 665.929688 475.320312 C 665.664062 476.917969 665.332031 478.449219 664.933594 479.910156 L 664.335938 483.503906 C 664.070312 485.101562 663.269531 486.429688 661.941406 487.496094 C 660.742188 488.558594 659.480469 489.289062 658.152344 489.691406 L 649.570312 489.691406 C 648.109375 489.691406 646.710938 489.691406 645.382812 489.691406 C 644.050781 489.691406 642.390625 489.625 640.394531 489.488281 C 638.398438 489.488281 636.007812 489.421875 633.214844 489.289062 C 630.421875 489.15625 626.894531 489.089844 622.640625 489.089844 C 619.980469 489.222656 617.386719 489.355469 614.859375 489.488281 C 612.199219 489.625 609.472656 489.691406 606.679688 489.691406 C 605.882812 489.691406 604.019531 489.625 601.09375 489.488281 C 598.167969 489.488281 595.109375 489.355469 591.917969 489.089844 C 588.859375 488.957031 586.066406 488.691406 583.539062 488.292969 C 581.011719 487.761719 579.746094 487.09375 579.746094 486.296875 C 579.746094 485.898438 579.613281 484.832031 579.347656 483.105469 C 579.082031 481.375 578.816406 479.578125 578.550781 477.714844 C 578.152344 475.722656 577.820312 473.925781 577.550781 472.328125 C 577.285156 470.597656 577.152344 469.46875 577.152344 468.9375 Z M 573.363281 505.851562 C 573.363281 502.925781 574.09375 500.796875 575.558594 499.46875 C 577.152344 498.003906 579.015625 497.007812 581.144531 496.472656 C 582.339844 496.339844 583.539062 496.140625 584.734375 495.875 C 585.796875 495.742188 586.929688 495.675781 588.125 495.675781 C 589.324219 495.808594 590.453125 495.875 591.515625 495.875 C 592.582031 495.875 593.644531 495.875 594.710938 495.875 L 602.089844 495.875 C 603.6875 495.875 606.214844 495.875 609.671875 495.875 C 612.996094 496.007812 616.789062 496.140625 621.042969 496.273438 L 634.609375 496.875 L 647.976562 497.472656 L 659.347656 497.871094 L 666.929688 498.46875 C 667.195312 498.601562 667.59375 498.933594 668.125 499.46875 C 668.65625 500 669.191406 500.664062 669.722656 501.464844 C 670.121094 502.128906 670.386719 502.925781 670.519531 503.859375 C 670.519531 504.789062 670.253906 505.71875 669.722656 506.652344 C 668.65625 508.648438 667.527344 509.777344 666.328125 510.042969 C 665.132812 510.441406 664.535156 510.707031 664.535156 510.839844 C 664.269531 510.839844 663.335938 510.90625 661.742188 511.042969 C 660.277344 511.042969 658.484375 511.042969 656.355469 511.042969 C 654.226562 511.175781 651.964844 511.242188 649.570312 511.242188 C 647.046875 511.375 644.71875 511.441406 642.589844 511.441406 C 640.460938 511.574219 638.597656 511.707031 637.003906 511.839844 C 635.40625 511.972656 634.410156 512.105469 634.011719 512.238281 L 629.621094 512.835938 L 628.226562 518.425781 L 629.820312 519.023438 C 630.621094 519.421875 631.351562 519.621094 632.015625 519.621094 C 632.148438 519.621094 632.414062 519.621094 632.8125 519.621094 C 633.214844 519.621094 633.679688 519.6875 634.210938 519.820312 C 636.605469 520.351562 638.933594 520.6875 641.191406 520.820312 C 641.726562 520.953125 642.125 521.019531 642.390625 521.019531 C 642.789062 521.019531 643.121094 521.019531 643.386719 521.019531 C 643.917969 521.019531 644.984375 521.152344 646.578125 521.417969 C 647.910156 521.816406 648.90625 522.015625 649.570312 522.015625 C 650.238281 522.414062 650.570312 522.746094 650.570312 523.015625 C 650.703125 523.28125 650.769531 523.613281 650.769531 524.011719 C 650.769531 525.34375 650.4375 526.738281 649.773438 528.203125 C 649.503906 528.867188 649.105469 529.464844 648.574219 530 C 648.175781 530.53125 647.644531 530.796875 646.976562 530.796875 L 627.027344 533.390625 L 626.429688 533.789062 C 626.03125 534.320312 625.765625 534.585938 625.632812 534.585938 C 625.632812 534.585938 625.5 534.855469 625.234375 535.386719 L 625.035156 536.980469 C 624.902344 537.25 624.835938 537.648438 624.835938 538.179688 C 624.835938 538.445312 624.765625 538.644531 624.632812 538.777344 C 629.6875 541.570312 634.742188 543.765625 639.796875 545.363281 C 644.851562 546.828125 650.371094 547.558594 656.355469 547.558594 L 663.335938 547.558594 C 663.871094 547.558594 664.667969 547.359375 665.730469 546.960938 C 667.0625 546.695312 667.859375 546.5625 668.125 546.5625 L 668.921875 546.5625 C 669.589844 546.5625 670.1875 546.828125 670.71875 547.359375 C 671.25 547.890625 671.714844 548.554688 672.117188 549.355469 C 672.515625 550.152344 672.78125 550.949219 672.914062 551.75 C 673.046875 552.546875 673.113281 553.277344 673.113281 553.945312 C 673.113281 555.40625 672.714844 556.671875 671.914062 557.734375 C 670.984375 558.800781 669.988281 559.796875 668.921875 560.726562 C 666.261719 562.457031 663.535156 563.324219 660.742188 563.324219 C 656.621094 563.324219 653.097656 562.65625 650.171875 561.328125 L 639.398438 556.9375 L 628.027344 552.746094 L 621.839844 550.550781 C 620.910156 550.417969 620.179688 550.21875 619.648438 549.953125 C 618.980469 549.820312 618.582031 549.6875 618.449219 549.554688 C 618.050781 549.554688 617.1875 549.355469 615.855469 548.957031 L 603.886719 546.960938 L 598.5 545.761719 L 597.101562 545.761719 C 596.570312 545.761719 595.972656 545.5625 595.308594 545.164062 C 594.378906 544.765625 593.445312 544.632812 592.515625 544.765625 C 591.851562 544.898438 591.25 545.496094 590.71875 546.5625 C 590.1875 547.625 589.589844 548.820312 588.925781 550.152344 C 588.257812 551.351562 587.195312 552.347656 585.730469 553.144531 C 584.269531 554.078125 582.007812 554.542969 578.949219 554.542969 C 576.15625 554.542969 573.695312 553.878906 571.566406 552.546875 C 569.441406 551.214844 568.375 549.222656 568.375 546.5625 C 568.375 544.433594 568.640625 542.902344 569.171875 541.972656 C 569.707031 541.304688 570.371094 540.839844 571.167969 540.574219 C 571.832031 540.308594 572.566406 539.976562 573.363281 539.578125 C 574.292969 539.308594 575.160156 538.445312 575.957031 536.980469 C 576.753906 535.652344 577.484375 533.988281 578.152344 531.992188 C 578.949219 530 579.878906 528.070312 580.945312 526.207031 C 582.007812 524.34375 583.203125 522.816406 584.535156 521.617188 C 585.996094 520.285156 587.726562 519.621094 589.722656 519.621094 C 592.515625 519.621094 594.308594 520.21875 595.109375 521.417969 C 596.039062 522.480469 596.703125 523.746094 597.101562 525.210938 C 597.238281 526.804688 597.503906 528.402344 597.902344 530 C 598.167969 531.460938 599.164062 532.59375 600.894531 533.390625 C 603.15625 534.1875 604.882812 534.789062 606.082031 535.1875 C 607.410156 535.585938 609.007812 535.785156 610.867188 535.785156 L 612.066406 533.390625 L 612.066406 512.238281 L 579.546875 512.238281 C 579.28125 512.238281 578.484375 511.839844 577.152344 511.042969 C 575.824219 510.375 575.027344 509.910156 574.757812 509.644531 C 574.359375 509.246094 574.027344 508.648438 573.761719 507.847656 C 573.496094 506.917969 573.363281 506.253906 573.363281 505.851562 Z M 594.710938 454.769531 C 596.835938 455.699219 598.433594 456.097656 599.496094 455.964844 L 604.484375 455.964844 C 605.550781 455.964844 607.476562 456.097656 610.269531 456.363281 C 613.0625 456.5 615.988281 456.699219 619.046875 456.964844 L 627.628906 457.960938 L 633.214844 458.558594 C 633.613281 458.558594 634.144531 458.625 634.808594 458.757812 C 635.472656 459.027344 636.207031 459.292969 637.003906 459.558594 L 639.398438 460.355469 L 640.792969 461.15625 C 641.726562 461.421875 642.191406 461.820312 642.191406 462.351562 C 642.058594 462.617188 641.992188 463.414062 641.992188 464.746094 C 641.992188 466.078125 641.792969 467.273438 641.390625 468.339844 C 641.125 469.402344 640.460938 470.265625 639.398438 470.933594 L 635.207031 470.933594 C 632.679688 470.933594 630.152344 470.867188 627.628906 470.734375 C 625.234375 470.734375 622.839844 470.597656 620.445312 470.332031 C 618.183594 470.066406 615.789062 469.933594 613.261719 469.933594 C 610.867188 469.800781 608.410156 469.734375 605.882812 469.734375 L 593.3125 469.734375 L 592.515625 471.332031 C 592.25 471.863281 592.117188 472.394531 592.117188 472.925781 L 592.117188 473.527344 C 592.117188 474.058594 592.316406 474.523438 592.714844 474.921875 L 593.3125 475.921875 C 595.175781 476.851562 596.902344 477.25 598.5 477.117188 L 603.488281 477.117188 C 603.753906 477.117188 604.285156 477.117188 605.082031 477.117188 C 605.882812 477.117188 606.945312 477.183594 608.277344 477.316406 C 610.800781 477.582031 613.527344 477.785156 616.453125 477.917969 C 619.382812 478.050781 622.175781 478.183594 624.835938 478.316406 C 626.03125 478.449219 627.027344 478.515625 627.828125 478.515625 C 628.625 478.515625 629.222656 478.515625 629.621094 478.515625 L 646.976562 478.515625 C 647.910156 478.648438 648.640625 478.449219 649.171875 477.917969 C 649.570312 477.382812 649.90625 476.71875 650.171875 475.921875 C 650.4375 475.121094 650.570312 474.324219 650.570312 473.527344 C 650.570312 472.726562 650.570312 472.0625 650.570312 471.53125 L 650.570312 470.933594 C 650.570312 470.265625 650.570312 468.871094 650.570312 466.742188 C 650.570312 464.613281 650.4375 462.285156 650.171875 459.757812 C 649.90625 457.363281 649.773438 455.101562 649.773438 452.972656 C 649.636719 450.84375 649.570312 449.316406 649.570312 448.382812 C 648.90625 447.585938 647.976562 446.785156 646.777344 445.988281 C 645.582031 445.191406 644.453125 444.792969 643.386719 444.792969 L 595.90625 444.792969 C 595.773438 445.058594 595.640625 445.257812 595.507812 445.390625 C 595.507812 445.523438 595.441406 445.722656 595.308594 445.988281 C 594.910156 446.652344 594.710938 447.121094 594.710938 447.386719 Z M 758.898438 442.199219 C 761.691406 441.664062 764.152344 441.332031 766.28125 441.199219 C 768.273438 441.199219 769.738281 441.199219 770.667969 441.199219 C 773.59375 441.199219 776.453125 441.265625 779.246094 441.398438 C 782.039062 441.398438 784.898438 441.332031 787.824219 441.199219 C 793.542969 441.199219 799.128906 441.199219 804.582031 441.199219 C 810.035156 441.199219 815.621094 441.398438 821.339844 441.796875 C 826.925781 442.0625 832.511719 442.664062 838.097656 443.59375 C 838.898438 443.59375 839.894531 443.859375 841.09375 444.390625 C 842.023438 444.792969 842.820312 444.992188 843.484375 444.992188 C 844.152344 445.257812 844.484375 445.855469 844.484375 446.785156 C 844.484375 447.320312 844.484375 447.785156 844.484375 448.183594 C 844.484375 448.582031 844.484375 448.914062 844.484375 449.179688 C 844.484375 450.246094 844.417969 451.175781 844.285156 451.976562 C 844.152344 452.773438 843.953125 453.570312 843.683594 454.371094 C 843.550781 454.636719 843.351562 455.167969 843.085938 455.964844 C 842.820312 456.632812 842.421875 457.296875 841.890625 457.960938 C 841.359375 458.492188 840.558594 459.027344 839.496094 459.558594 C 838.566406 459.957031 837.300781 460.089844 835.707031 459.957031 L 819.148438 459.757812 L 817.152344 461.15625 C 816.753906 463.28125 816.554688 465.410156 816.554688 467.539062 L 815.953125 469.933594 L 815.953125 471.132812 C 816.621094 471.398438 817.75 471.796875 819.347656 472.328125 C 820.941406 472.859375 822.671875 473.394531 824.535156 473.925781 C 826.261719 474.457031 827.925781 474.921875 829.519531 475.320312 C 830.984375 475.722656 832.113281 475.988281 832.914062 476.121094 C 833.976562 476.253906 835.171875 476.253906 836.503906 476.121094 C 839.164062 475.722656 841.492188 476.121094 843.484375 477.316406 C 844.417969 478.117188 845.015625 479.378906 845.28125 481.109375 C 845.679688 481.640625 845.945312 482.707031 846.078125 484.300781 C 846.34375 485.898438 846.476562 486.894531 846.476562 487.296875 L 846.476562 501.0625 C 846.476562 503.058594 846.476562 505.054688 846.476562 507.050781 C 846.476562 509.179688 846.546875 511.308594 846.679688 513.4375 C 846.679688 515.5625 846.613281 517.824219 846.476562 520.21875 C 846.476562 522.613281 846.34375 524.875 846.078125 527.003906 L 844.085938 538.578125 C 843.953125 538.84375 843.820312 539.511719 843.683594 540.574219 C 843.417969 541.503906 843.152344 542.570312 842.886719 543.765625 C 842.621094 545.097656 842.289062 546.226562 841.890625 547.160156 C 841.625 548.222656 841.359375 548.820312 841.09375 548.957031 C 840.160156 549.621094 838.699219 549.886719 836.703125 549.753906 L 832.914062 549.753906 C 825.863281 549.488281 819.214844 549.355469 812.960938 549.355469 C 806.84375 549.355469 801.390625 549.355469 796.601562 549.355469 L 780.84375 549.355469 C 778.050781 549.621094 775.855469 549.953125 774.257812 550.351562 C 772.664062 550.75 771.132812 550.949219 769.671875 550.949219 C 767.277344 550.949219 765.082031 550.285156 763.085938 548.957031 C 761.226562 547.625 760.292969 545.5625 760.292969 542.769531 L 759.695312 527.804688 C 759.5625 525.941406 759.496094 524.078125 759.496094 522.214844 C 759.363281 520.351562 759.296875 518.757812 759.296875 517.425781 C 759.164062 515.964844 759.097656 514.765625 759.097656 513.835938 C 759.097656 512.902344 759.097656 512.371094 759.097656 512.238281 L 759.097656 484.902344 C 759.230469 483.4375 759.496094 481.972656 759.894531 480.511719 C 760.425781 478.914062 760.960938 477.449219 761.492188 476.121094 C 762.289062 474.789062 763.152344 473.726562 764.085938 472.925781 C 765.015625 471.996094 766.148438 471.398438 767.476562 471.132812 C 768.007812 471.132812 768.941406 471.066406 770.269531 470.933594 C 771.597656 470.800781 772.929688 470.667969 774.257812 470.53125 L 778.449219 469.933594 C 779.113281 469.933594 779.710938 469.933594 780.246094 469.933594 C 780.644531 469.933594 780.976562 469.933594 781.242188 469.933594 C 781.773438 469.269531 782.105469 468.472656 782.238281 467.539062 C 782.238281 466.609375 782.238281 465.742188 782.238281 464.945312 C 782.238281 463.617188 782.171875 462.484375 782.039062 461.554688 C 781.90625 460.753906 781.308594 460.15625 780.246094 459.757812 C 776.785156 460.15625 773.261719 460.289062 769.671875 460.15625 C 766.078125 460.023438 762.554688 459.558594 759.097656 458.757812 C 757.367188 457.164062 756.105469 455.101562 755.308594 452.574219 C 754.507812 450.179688 754.109375 447.585938 754.109375 444.792969 Z M 775.058594 534.386719 C 775.589844 535.1875 776.320312 535.71875 777.253906 535.984375 C 778.183594 536.25 779.046875 536.382812 779.84375 536.382812 C 780.777344 536.382812 781.574219 536.316406 782.238281 536.183594 C 782.90625 536.050781 783.371094 535.984375 783.636719 535.984375 L 799.398438 535.984375 C 799.796875 535.984375 800.460938 536.183594 801.390625 536.582031 C 802.457031 536.980469 803.253906 537.183594 803.785156 537.183594 L 814.160156 537.183594 C 814.292969 537.183594 814.558594 537.183594 814.957031 537.183594 C 815.222656 537.183594 815.621094 537.25 816.15625 537.382812 C 818.148438 537.914062 820.410156 538.246094 822.9375 538.378906 C 823.335938 538.511719 823.667969 538.578125 823.933594 538.578125 C 824.335938 538.578125 824.535156 538.578125 824.535156 538.578125 L 825.332031 538.578125 C 826.128906 538.578125 826.792969 538.3125 827.328125 537.78125 C 827.859375 537.25 828.390625 536.648438 828.921875 535.984375 C 829.1875 535.984375 829.652344 535.652344 830.320312 534.988281 C 831.25 534.1875 831.847656 533.65625 832.113281 533.390625 C 832.246094 533.257812 832.3125 533.125 832.3125 532.992188 C 832.3125 532.859375 832.378906 532.59375 832.511719 532.191406 C 833.046875 531.660156 833.3125 531.0625 833.3125 530.398438 C 833.3125 530 833.378906 529.597656 833.511719 529.199219 C 833.644531 528.933594 833.777344 528.601562 833.910156 528.203125 L 834.109375 527.203125 C 834.109375 527.203125 834.109375 526.871094 834.109375 526.207031 C 834.242188 525.542969 834.375 524.808594 834.507812 524.011719 C 834.640625 523.082031 834.773438 522.214844 834.90625 521.417969 C 834.90625 520.488281 834.90625 519.6875 834.90625 519.023438 C 835.171875 515.296875 835.171875 512.371094 834.90625 510.242188 C 834.773438 507.980469 834.640625 506.253906 834.507812 505.054688 C 834.507812 503.058594 834.441406 501.0625 834.308594 499.066406 C 834.175781 497.207031 833.910156 495.476562 833.511719 493.878906 C 833.246094 492.285156 832.847656 490.953125 832.3125 489.890625 C 831.914062 488.957031 831.515625 488.425781 831.117188 488.292969 C 830.1875 488.160156 828.988281 488.027344 827.527344 487.894531 C 826.0625 487.628906 825.199219 487.628906 824.933594 487.894531 C 824.667969 488.160156 824.402344 488.757812 824.132812 489.691406 C 823.867188 490.753906 823.734375 491.882812 823.734375 493.082031 C 823.734375 494.679688 823.601562 496.472656 823.335938 498.46875 C 823.070312 500.597656 823.46875 502.660156 824.535156 504.65625 C 825.332031 506.386719 826.0625 507.980469 826.726562 509.445312 C 827.394531 510.90625 827.195312 512.171875 826.128906 513.234375 C 825.597656 513.769531 824.867188 514.167969 823.933594 514.433594 C 823.003906 514.566406 822.140625 514.632812 821.339844 514.632812 C 820.277344 514.632812 819.214844 514.566406 818.148438 514.433594 L 812.5625 513.035156 L 809.96875 507.25 L 809.96875 492.285156 C 809.96875 491.484375 809.769531 490.488281 809.371094 489.289062 C 809.371094 489.023438 809.304688 488.691406 809.171875 488.292969 C 809.039062 488.027344 808.972656 487.695312 808.972656 487.296875 L 796.203125 487.296875 C 795.804688 487.296875 795.472656 487.894531 795.207031 489.089844 C 795.074219 489.625 795.007812 490.289062 795.007812 491.085938 C 795.007812 491.882812 795.007812 492.75 795.007812 493.679688 C 795.007812 495.542969 794.941406 497.605469 794.808594 499.867188 C 794.675781 501.996094 794.34375 503.992188 793.808594 505.851562 C 793.277344 507.714844 792.414062 509.246094 791.21875 510.441406 C 790.019531 511.640625 788.359375 512.238281 786.230469 512.238281 C 784.898438 512.238281 783.570312 511.90625 782.238281 511.242188 C 781.042969 510.441406 780.445312 509.113281 780.445312 507.25 C 780.445312 505.253906 780.710938 503.722656 781.242188 502.660156 C 781.90625 501.597656 782.636719 500.53125 783.4375 499.46875 C 784.234375 498.402344 784.898438 497.339844 785.429688 496.273438 C 785.964844 495.210938 786.230469 493.679688 786.230469 491.683594 L 786.03125 489.488281 C 785.765625 488.292969 785.496094 487.429688 785.230469 486.894531 C 784.964844 486.230469 783.902344 485.898438 782.039062 485.898438 C 781.773438 485.898438 781.441406 485.832031 781.042969 485.699219 C 780.644531 485.433594 780.113281 485.300781 779.445312 485.300781 C 778.914062 485.167969 778.25 485.234375 777.453125 485.5 C 776.652344 485.765625 775.789062 486.429688 774.859375 487.496094 Z M 786.429688 524.210938 C 786.429688 521.816406 787.09375 520.085938 788.425781 519.023438 C 789.753906 517.957031 791.417969 517.425781 793.410156 517.425781 C 797.136719 517.425781 800.992188 517.558594 804.984375 517.824219 C 809.105469 518.09375 812.761719 518.359375 815.953125 518.625 C 816.089844 518.625 816.421875 518.757812 816.953125 519.023438 C 817.484375 519.15625 818.082031 519.355469 818.746094 519.621094 C 819.414062 519.886719 819.945312 520.152344 820.34375 520.417969 C 820.875 520.6875 821.140625 520.886719 821.140625 521.019531 L 821.140625 525.007812 C 821.140625 526.074219 821.007812 527.203125 820.742188 528.402344 C 820.609375 529.597656 819.746094 530.664062 818.148438 531.59375 C 818.015625 532.125 817.550781 532.59375 816.753906 532.992188 C 816.089844 533.257812 815.488281 533.523438 814.957031 533.789062 L 807.976562 533.789062 C 807.175781 533.789062 806.246094 533.789062 805.183594 533.789062 C 804.25 533.789062 803.1875 533.789062 801.988281 533.789062 C 799.464844 533.921875 797.070312 533.789062 794.808594 533.390625 C 792.546875 532.859375 790.617188 531.925781 789.023438 530.597656 C 787.292969 529.265625 786.429688 527.136719 786.429688 524.210938 Z M 719.996094 531.394531 C 719.996094 528.734375 720.660156 526.738281 721.992188 525.410156 C 723.320312 524.078125 724.515625 522.882812 725.582031 521.816406 C 726.644531 520.886719 727.777344 519.953125 728.972656 519.023438 C 730.035156 518.226562 731.234375 517.292969 732.5625 516.230469 C 733.761719 515.699219 735.023438 515.164062 736.355469 514.632812 C 737.683594 513.96875 738.75 513.636719 739.546875 513.636719 C 742.339844 513.636719 744.203125 514.632812 745.132812 516.628906 C 745.929688 518.757812 746.328125 521.019531 746.328125 523.414062 C 746.328125 524.476562 746.0625 525.542969 745.53125 526.605469 C 745 527.804688 744.269531 529 743.335938 530.199219 C 742.40625 531.261719 741.476562 532.328125 740.542969 533.390625 C 739.613281 534.320312 738.75 535.121094 737.949219 535.785156 C 736.355469 537.117188 734.625 538.113281 732.761719 538.777344 C 730.902344 539.578125 729.171875 539.976562 727.578125 539.976562 C 725.050781 539.976562 723.1875 539.042969 721.992188 537.183594 C 720.660156 535.453125 719.996094 533.523438 719.996094 531.394531 Z M 720.394531 455.765625 C 720.394531 454.304688 720.726562 452.507812 721.390625 450.378906 C 721.65625 449.449219 722.058594 448.515625 722.589844 447.585938 C 722.988281 446.785156 723.519531 446.253906 724.183594 445.988281 C 725.117188 446.519531 725.980469 446.785156 726.777344 446.785156 L 727.976562 447.1875 C 728.640625 447.453125 729.835938 447.984375 731.566406 448.78125 C 733.164062 449.449219 734.824219 450.179688 736.554688 450.976562 L 741.34375 453.171875 C 742.007812 453.703125 742.605469 454.035156 743.136719 454.171875 C 743.667969 454.304688 744.003906 454.4375 744.136719 454.570312 L 745.53125 455.167969 C 746.726562 455.964844 747.726562 456.898438 748.523438 457.960938 C 748.921875 458.359375 749.121094 458.894531 749.121094 459.558594 C 749.121094 459.957031 749.121094 460.421875 749.121094 460.953125 C 749.121094 461.621094 748.988281 462.21875 748.722656 462.75 L 748.324219 464.746094 C 748.058594 465.410156 747.925781 465.808594 747.925781 465.945312 C 747.261719 467.40625 746.460938 468.136719 745.53125 468.136719 C 744.601562 468.273438 743.535156 468.339844 742.339844 468.339844 C 740.34375 468.339844 738.683594 468.273438 737.351562 468.136719 C 735.890625 468.003906 734.359375 467.671875 732.761719 467.140625 C 731.167969 466.476562 729.636719 465.808594 728.175781 465.144531 C 726.710938 464.613281 725.382812 463.882812 724.183594 462.949219 C 721.65625 461.222656 720.394531 458.828125 720.394531 455.765625 Z M 719.199219 501.863281 C 718.664062 501.863281 718.132812 501.664062 717.601562 501.261719 L 716.804688 500.664062 C 716.40625 500.53125 716.003906 500.265625 715.605469 499.867188 C 715.207031 499.46875 714.808594 499.066406 714.410156 498.667969 C 714.144531 498.402344 713.746094 497.871094 713.210938 497.074219 C 712.679688 496.140625 712.28125 495.542969 712.015625 495.277344 L 711.21875 490.289062 C 711.484375 488.160156 712.148438 486.761719 713.210938 486.097656 C 714.410156 485.433594 715.40625 485.035156 716.203125 484.902344 C 717.136719 484.632812 718 484.5 718.796875 484.5 C 719.730469 484.5 720.460938 484.5 720.992188 484.5 C 724.050781 484.5 727.308594 485.101562 730.769531 486.296875 C 734.226562 487.363281 737.019531 489.289062 739.148438 492.085938 C 739.148438 492.21875 739.148438 492.285156 739.148438 492.285156 C 739.015625 492.152344 739.214844 492.417969 739.746094 493.082031 C 739.878906 493.613281 740.144531 494.078125 740.542969 494.480469 C 740.808594 494.878906 741.140625 495.277344 741.542969 495.675781 C 741.542969 496.875 741.140625 497.871094 740.34375 498.667969 C 739.546875 499.46875 738.414062 500.132812 736.953125 500.664062 C 735.488281 501.195312 733.894531 501.597656 732.164062 501.863281 C 730.4375 502.128906 728.707031 502.328125 726.976562 502.460938 L 720.394531 501.863281 Z M 795.804688 462.351562 C 795.804688 462.617188 795.871094 463.214844 796.003906 464.148438 C 796.003906 465.078125 796.136719 466.011719 796.402344 466.941406 C 796.535156 467.871094 796.738281 468.804688 797.003906 469.734375 C 797.269531 470.53125 797.535156 471 797.800781 471.132812 L 798.597656 471.53125 L 799.796875 471.929688 C 800.59375 472.195312 800.925781 472.328125 800.792969 472.328125 C 800.925781 472.328125 801.125 472.328125 801.390625 472.328125 C 801.921875 472.328125 802.523438 472.195312 803.1875 471.929688 L 804.382812 471.53125 C 804.648438 471.53125 804.914062 471.398438 805.183594 471.132812 C 805.316406 471 805.515625 470.597656 805.78125 469.933594 C 806.046875 468.472656 806.179688 466.742188 806.179688 464.746094 L 806.179688 462.351562 C 806.179688 461.421875 805.980469 460.753906 805.582031 460.355469 C 805.183594 459.957031 804.714844 459.691406 804.183594 459.558594 L 802.789062 459.558594 C 802.523438 459.691406 802.191406 459.757812 801.789062 459.757812 C 800.59375 459.757812 799.53125 459.890625 798.597656 460.15625 C 797.800781 460.289062 796.871094 461.019531 795.804688 462.351562 Z M 795.804688 462.351562 "/>
<path style=" stroke:none;fill-rule:nonzero;fill:rgb(0%,0%,0%);fill-opacity:1;" d="M 570.96875 592.855469 C 572.164062 592.855469 572.898438 594.253906 573.164062 597.046875 C 573.03125 597.84375 572.898438 598.640625 572.765625 599.441406 C 572.765625 600.371094 572.765625 601.238281 572.765625 602.035156 C 572.765625 604.5625 572.832031 606.558594 572.964844 608.019531 C 572.964844 609.484375 572.964844 610.414062 572.964844 610.816406 L 573.5625 611.214844 C 580.34375 611.214844 583.738281 611.613281 583.738281 612.410156 C 583.738281 612.675781 583.804688 612.808594 583.9375 612.808594 C 583.804688 613.34375 583.605469 613.742188 583.339844 614.007812 C 583.070312 613.875 582.871094 613.808594 582.738281 613.808594 L 580.34375 614.40625 C 579.8125 614.273438 579.28125 614.207031 578.75 614.207031 L 576.15625 614.207031 C 576.023438 614.207031 575.957031 614.273438 575.957031 614.40625 L 575.558594 614.207031 C 575.425781 614.207031 575.226562 614.207031 574.960938 614.207031 C 574.691406 614.207031 574.359375 614.273438 573.960938 614.40625 C 572.097656 614.40625 570.769531 613.875 569.972656 612.808594 C 569.441406 611.878906 569.171875 609.949219 569.171875 607.023438 C 568.90625 607.023438 568.773438 605.691406 568.773438 603.03125 C 568.773438 602.5 568.839844 601.703125 568.972656 600.636719 C 569.105469 599.441406 569.238281 597.910156 569.371094 596.046875 L 569.171875 595.25 C 569.304688 594.851562 569.371094 594.1875 569.371094 593.253906 L 569.371094 593.054688 L 570.171875 592.855469 Z M 600.496094 601.835938 C 603.554688 602.101562 605.082031 603.097656 605.082031 604.828125 C 605.082031 606.425781 603.886719 607.488281 601.492188 608.019531 L 598.101562 608.019531 C 598.101562 609.617188 599.429688 610.617188 602.089844 611.015625 C 602.890625 611.015625 604.152344 610.75 605.882812 610.214844 L 606.679688 610.414062 L 606.679688 610.617188 C 606.28125 611.414062 605.484375 612.011719 604.285156 612.410156 C 604.019531 612.675781 603.15625 612.875 601.691406 613.011719 C 599.695312 613.011719 597.835938 611.546875 596.105469 608.621094 C 595.972656 607.820312 595.90625 607.289062 595.90625 607.023438 C 595.90625 605.292969 596.769531 603.765625 598.5 602.433594 C 599.03125 602.035156 599.695312 601.835938 600.496094 601.835938 Z M 598.699219 606.027344 C 601.226562 606.027344 602.488281 605.625 602.488281 604.828125 C 602.488281 604.429688 602.023438 604.164062 601.09375 604.03125 L 600.097656 604.03125 C 599.5625 604.296875 599.097656 604.894531 598.699219 605.828125 Z M 619.246094 595.449219 C 619.78125 595.449219 620.179688 596.382812 620.445312 598.242188 L 620.445312 598.640625 C 620.445312 599.175781 620.445312 599.773438 620.445312 600.4375 C 620.578125 601.105469 620.644531 601.902344 620.644531 602.832031 C 621.707031 602.566406 622.640625 602.367188 623.4375 602.234375 C 625.832031 602.234375 627.359375 603.832031 628.027344 607.023438 L 627.828125 607.421875 L 627.828125 607.621094 C 627.828125 610.148438 626.761719 611.746094 624.632812 612.410156 C 624.234375 612.675781 623.4375 612.875 622.242188 613.011719 L 619.648438 613.011719 C 618.714844 612.078125 618.25 611.28125 618.25 610.617188 C 618.382812 608.886719 618.449219 606.890625 618.449219 604.628906 C 618.449219 602.367188 618.515625 599.90625 618.648438 597.246094 L 618.648438 596.449219 C 618.648438 595.78125 618.78125 595.449219 619.046875 595.449219 Z M 620.445312 607.023438 C 620.445312 607.289062 620.445312 607.554688 620.445312 607.820312 C 620.445312 608.085938 620.445312 608.355469 620.445312 608.621094 C 620.578125 610.480469 620.710938 611.414062 620.84375 611.414062 C 622.441406 611.414062 623.96875 610.480469 625.433594 608.621094 C 625.832031 607.554688 626.03125 606.757812 626.03125 606.226562 C 625.765625 604.230469 625.167969 603.230469 624.234375 603.230469 C 623.96875 603.230469 623.636719 603.230469 623.238281 603.230469 C 622.308594 603.5 621.441406 603.765625 620.644531 604.03125 L 620.445312 604.230469 Z M 645.582031 601.238281 C 648.375 601.769531 649.773438 602.632812 649.773438 603.832031 C 650.039062 604.097656 650.238281 605.292969 650.371094 607.421875 C 650.105469 608.753906 649.972656 610.082031 649.972656 611.414062 C 649.972656 611.679688 650.503906 612.011719 651.566406 612.410156 C 651.566406 612.542969 651.632812 612.742188 651.765625 613.011719 L 651.765625 613.210938 C 651.765625 613.34375 651.300781 613.542969 650.371094 613.808594 C 649.703125 613.808594 648.972656 613.144531 648.175781 611.8125 L 647.777344 611.8125 C 646.84375 612.476562 645.78125 612.808594 644.585938 612.808594 C 641.792969 612.410156 640.394531 611.480469 640.394531 610.015625 C 639.863281 609.484375 639.597656 608.753906 639.597656 607.820312 C 639.597656 606.226562 640.328125 604.5625 641.792969 602.832031 C 643.121094 601.769531 644.386719 601.238281 645.582031 601.238281 Z M 641.792969 608.222656 C 641.792969 609.417969 642.855469 610.28125 644.984375 610.816406 C 645.914062 610.683594 646.511719 610.480469 646.777344 610.214844 L 647.578125 610.214844 L 647.578125 609.617188 C 647.710938 608.289062 647.777344 607.15625 647.777344 606.226562 C 647.910156 605.425781 647.976562 604.828125 647.976562 604.429688 C 647.976562 603.5 647.3125 602.898438 645.980469 602.632812 L 645.582031 602.632812 C 643.851562 602.632812 642.65625 603.5 641.992188 605.226562 C 641.859375 606.160156 641.792969 606.757812 641.792969 607.023438 Z M 668.523438 601.035156 C 671.050781 601.035156 673.046875 601.902344 674.507812 603.632812 C 674.910156 604.960938 675.109375 606.425781 675.109375 608.019531 C 674.441406 610.816406 673.644531 612.210938 672.714844 612.210938 C 672.050781 612.609375 671.25 612.945312 670.320312 613.210938 C 667.660156 613.210938 665.398438 611.878906 663.535156 609.21875 C 663.535156 609.085938 663.46875 608.753906 663.335938 608.222656 C 663.335938 604.761719 664.46875 602.5 666.730469 601.4375 Z M 668.125 603.230469 C 666.664062 603.230469 665.664062 604.695312 665.132812 607.621094 L 665.132812 608.019531 C 665.929688 610.148438 667.261719 611.214844 669.121094 611.214844 C 671.515625 610.816406 672.714844 609.75 672.714844 608.019531 L 672.714844 605.828125 C 672.714844 604.230469 671.648438 603.230469 669.523438 602.832031 L 669.121094 603.230469 Z M 719.398438 593.253906 C 719.929688 593.253906 720.460938 593.320312 720.992188 593.453125 C 721.523438 593.453125 722.191406 593.519531 722.988281 593.652344 C 723.386719 593.519531 723.785156 593.453125 724.183594 593.453125 L 724.382812 593.851562 L 724.382812 594.851562 C 724.382812 595.25 724.183594 595.449219 723.785156 595.449219 L 722.390625 595.25 C 722.390625 595.648438 722.390625 595.914062 722.390625 596.046875 C 722.390625 596.714844 722.390625 597.246094 722.390625 597.644531 C 722.390625 597.910156 722.390625 598.042969 722.390625 598.042969 C 722.390625 599.90625 722.457031 601.371094 722.589844 602.433594 C 722.589844 603.5 722.589844 604.164062 722.589844 604.429688 L 722.789062 604.429688 C 722.789062 604.5625 722.722656 604.628906 722.589844 604.628906 C 722.988281 608.753906 723.1875 611.082031 723.1875 611.613281 C 725.316406 612.011719 726.378906 612.410156 726.378906 612.808594 L 726.378906 613.210938 C 726.378906 613.34375 726.113281 613.476562 725.582031 613.609375 C 725.449219 613.609375 725.316406 613.542969 725.183594 613.410156 L 718.796875 614.007812 C 718.132812 613.875 717.601562 613.34375 717.203125 612.410156 L 717.203125 612.011719 L 717.402344 611.613281 L 719.199219 611.8125 L 719.796875 611.8125 L 719.796875 611.613281 C 719.265625 610.816406 718.996094 609.949219 718.996094 609.019531 C 718.996094 608.085938 718.996094 606.957031 718.996094 605.625 C 718.863281 604.164062 718.796875 602.433594 718.796875 600.4375 C 718.796875 600.039062 718.929688 598.574219 719.199219 596.046875 C 719.199219 595.78125 718.464844 595.183594 717.003906 594.253906 L 717.003906 594.054688 C 717.003906 593.652344 717.800781 593.386719 719.398438 593.253906 Z M 743.136719 601.835938 C 744.203125 601.835938 745 602.234375 745.53125 603.03125 L 745.53125 603.433594 C 745.398438 603.699219 745.132812 603.832031 744.734375 603.832031 C 743.800781 603.296875 743.203125 603.03125 742.9375 603.03125 L 742.339844 603.03125 C 741.277344 603.03125 740.675781 603.699219 740.542969 605.027344 L 740.542969 605.828125 C 740.542969 606.359375 742.074219 606.824219 745.132812 607.222656 C 746.460938 607.753906 747.128906 608.6875 747.128906 610.015625 C 746.460938 612.144531 745.332031 613.210938 743.734375 613.210938 C 743.734375 613.34375 743.535156 613.410156 743.136719 613.410156 C 740.210938 612.875 738.75 612.277344 738.75 611.613281 C 738.484375 611.613281 738.347656 611.082031 738.347656 610.015625 C 738.347656 609.484375 738.484375 609.21875 738.75 609.21875 C 739.679688 610.683594 740.34375 611.414062 740.742188 611.414062 L 742.339844 611.414062 C 743.402344 611.414062 744.070312 610.550781 744.335938 608.820312 C 744.335938 608.421875 743.46875 608.085938 741.742188 607.820312 C 740.011719 607.023438 739.148438 606.226562 739.148438 605.425781 C 739.148438 603.832031 740.078125 602.699219 741.941406 602.035156 C 742.472656 601.902344 742.871094 601.835938 743.136719 601.835938 Z M 794.609375 601.238281 C 797.402344 601.769531 798.796875 602.632812 798.796875 603.832031 C 799.0625 604.097656 799.261719 605.292969 799.398438 607.421875 C 798.996094 608.753906 798.796875 610.082031 798.796875 611.414062 C 798.796875 611.679688 799.398438 612.011719 800.59375 612.410156 C 800.59375 612.542969 800.660156 612.742188 800.792969 613.011719 L 800.792969 613.210938 C 800.792969 613.34375 800.328125 613.542969 799.398438 613.808594 C 798.730469 613.808594 797.933594 613.144531 797.003906 611.8125 L 796.804688 611.8125 C 795.871094 612.476562 794.808594 612.808594 793.609375 612.808594 C 790.816406 612.410156 789.421875 611.480469 789.421875 610.015625 C 788.890625 609.484375 788.625 608.753906 788.625 607.820312 C 788.625 606.226562 789.355469 604.5625 790.816406 602.832031 C 792.148438 601.769531 793.410156 601.238281 794.609375 601.238281 Z M 790.816406 608.222656 C 790.816406 609.417969 791.882812 610.28125 794.011719 610.816406 C 794.808594 610.683594 795.40625 610.480469 795.804688 610.214844 L 796.601562 610.214844 L 796.601562 609.617188 C 796.738281 608.289062 796.804688 607.15625 796.804688 606.226562 C 796.9375 605.425781 797.003906 604.828125 797.003906 604.429688 C 797.003906 603.5 796.269531 602.898438 794.808594 602.632812 L 794.609375 602.632812 C 792.878906 602.632812 791.683594 603.5 791.015625 605.226562 C 790.882812 606.160156 790.816406 606.757812 790.816406 607.023438 Z M 849.671875 593.851562 C 852.996094 594.519531 854.65625 595.648438 854.65625 597.246094 L 854.257812 599.242188 L 853.660156 599.242188 C 852.863281 597.910156 852.199219 597.246094 851.664062 597.246094 L 850.46875 597.246094 C 848.339844 597.246094 847.011719 599.441406 846.476562 603.832031 L 846.476562 606.425781 C 846.476562 608.421875 847.277344 609.882812 848.871094 610.816406 L 849.472656 610.816406 C 851.066406 610.816406 852.265625 609.550781 853.0625 607.023438 C 853.328125 606.625 853.792969 606.292969 854.457031 606.027344 C 855.125 606.027344 855.457031 606.292969 855.457031 606.824219 C 855.457031 608.554688 854.859375 610.082031 853.660156 611.414062 C 852.730469 612.742188 851.730469 613.410156 850.667969 613.410156 L 849.671875 613.410156 C 846.476562 613.410156 844.21875 611.082031 842.886719 606.425781 C 842.753906 605.757812 842.6875 605.027344 842.6875 604.230469 L 842.6875 603.632812 C 842.6875 598.976562 844.550781 595.78125 848.273438 594.054688 C 848.804688 594.054688 849.273438 593.988281 849.671875 593.851562 Z M 873.609375 601.238281 C 876.269531 601.769531 877.601562 602.632812 877.601562 603.832031 C 878 604.097656 878.265625 605.292969 878.398438 607.421875 C 878 608.753906 877.800781 610.082031 877.800781 611.414062 C 877.800781 611.679688 878.332031 612.011719 879.394531 612.410156 C 879.394531 612.542969 879.527344 612.742188 879.796875 613.011719 L 879.796875 613.210938 C 879.796875 613.34375 879.261719 613.542969 878.199219 613.808594 C 877.667969 613.808594 876.933594 613.144531 876.003906 611.8125 L 875.804688 611.8125 C 874.742188 612.476562 873.675781 612.808594 872.613281 612.808594 C 869.6875 612.410156 868.222656 611.480469 868.222656 610.015625 C 867.691406 609.484375 867.425781 608.753906 867.425781 607.820312 C 867.425781 606.226562 868.15625 604.5625 869.621094 602.832031 C 870.949219 601.769531 872.28125 601.238281 873.609375 601.238281 Z M 869.621094 608.222656 C 869.621094 609.417969 870.683594 610.28125 872.8125 610.816406 C 873.742188 610.683594 874.34375 610.480469 874.609375 610.214844 L 875.40625 610.214844 L 875.40625 609.617188 C 875.539062 608.289062 875.671875 607.15625 875.804688 606.226562 C 875.804688 605.425781 875.804688 604.828125 875.804688 604.429688 C 875.804688 603.5 875.140625 602.898438 873.808594 602.632812 L 873.609375 602.632812 C 871.882812 602.632812 870.683594 603.5 870.019531 605.226562 C 869.753906 606.160156 869.621094 606.757812 869.621094 607.023438 Z M 894.957031 599.242188 C 896.152344 599.90625 896.753906 600.902344 896.753906 602.234375 L 896.953125 602.433594 C 897.085938 602.433594 897.21875 602.367188 897.351562 602.234375 C 899.613281 602.632812 900.742188 603.03125 900.742188 603.433594 L 900.742188 603.632812 C 900.476562 604.03125 900.078125 604.230469 899.546875 604.230469 C 899.011719 604.097656 898.546875 604.03125 898.148438 604.03125 C 897.882812 604.03125 897.617188 604.03125 897.351562 604.03125 L 896.753906 604.03125 L 896.351562 607.222656 C 896.621094 609.882812 897.484375 611.214844 898.945312 611.214844 L 899.347656 611.214844 C 900.808594 610.550781 901.738281 610.214844 902.140625 610.214844 L 902.339844 610.816406 C 901.941406 612.277344 901.207031 613.011719 900.144531 613.011719 C 896.285156 613.011719 894.160156 611.480469 893.761719 608.421875 L 893.359375 606.824219 L 893.761719 603.832031 L 893.359375 603.832031 C 893.226562 603.832031 893.027344 603.898438 892.761719 604.03125 C 891.832031 603.765625 891.367188 603.433594 891.367188 603.03125 C 891.367188 602.765625 891.367188 602.632812 891.367188 602.632812 L 892.5625 602.632812 L 893.960938 602.433594 C 894.09375 600.304688 894.292969 599.242188 894.558594 599.242188 Z M 894.957031 599.242188 "/>
</g>
</svg>
